<?xml version="1.0" encoding="UTF-8"?>
<svg version="1.1" xmlns="http://www.w3.org/2000/svg" width="512" height="512">
<path d="M0 0 C1.52253496 -0.00445668 1.52253496 -0.00445668 3.07582819 -0.0090034 C6.46386015 -0.01764792 9.85185659 -0.01919506 13.23989868 -0.02069092 C15.674897 -0.02532221 18.1098946 -0.03034729 20.54489136 -0.03573608 C27.15285267 -0.04883475 33.76080664 -0.05533789 40.36877775 -0.05974674 C44.50310232 -0.0625174 48.63742458 -0.06675631 52.77174759 -0.07125092 C64.24130036 -0.08343977 75.71085128 -0.09373867 87.18041039 -0.09712601 C88.28005098 -0.09745536 88.28005098 -0.09745536 89.40190653 -0.09779136 C90.50403742 -0.09811878 90.50403742 -0.09811878 91.62843359 -0.09845281 C93.11708601 -0.09889626 94.60573844 -0.09934282 96.09439087 -0.09979248 C96.83279896 -0.10001391 97.57120706 -0.10023534 98.33199115 -0.10046348 C110.27595808 -0.10440492 122.21986377 -0.12184066 134.16380708 -0.145152 C146.45642457 -0.16894805 158.74901145 -0.18133166 171.04165232 -0.18249393 C177.93130942 -0.18340626 184.82088676 -0.18904585 191.7105217 -0.20731354 C198.19976844 -0.22446006 204.68890484 -0.22590591 211.17816925 -0.21717453 C213.54752889 -0.21640891 215.91689693 -0.22068343 218.28623581 -0.23063278 C247.23502994 -0.34497242 275.47478082 3.91984276 297.66812134 24.14044189 C299.1337854 25.46688721 299.1337854 25.46688721 300.62905884 26.82012939 C318.89884496 43.90656445 329.75992243 68.45392855 330.7622323 93.49130321 C330.80214734 96.15208907 330.81102364 98.81123468 330.80856323 101.47232056 C330.81301992 102.99485551 330.81301992 102.99485551 330.81756663 104.54814875 C330.82621116 107.93618071 330.8277583 111.32417715 330.82925415 114.71221924 C330.83388544 117.14721756 330.83891052 119.58221515 330.84429932 122.01721191 C330.85739798 128.62517322 330.86390112 135.23312719 330.86830997 141.84109831 C330.87108063 145.97542288 330.87531954 150.10974514 330.87981415 154.24406815 C330.892003 165.71362091 330.9023019 177.18317184 330.90568924 188.65273094 C330.90590881 189.38582467 330.90612837 190.1189184 330.90635459 190.87422708 C330.90657287 191.60898101 330.90679115 192.34373494 330.90701604 193.10075414 C330.90745949 194.58940657 330.90790605 196.078059 330.90835571 197.56671143 C330.90857714 198.30511952 330.90879857 199.04352761 330.90902671 199.80431171 C330.91296816 211.74827864 330.9304039 223.69218432 330.95371523 235.63612764 C330.97751128 247.92874513 330.98989489 260.22133201 330.99105716 272.51397288 C330.99196949 279.40362997 330.99760908 286.29320731 331.01587677 293.18284225 C331.0330233 299.672089 331.03446914 306.1612254 331.02573776 312.65048981 C331.02497214 315.01984945 331.02924666 317.38921749 331.03919601 319.75855637 C331.15365584 348.7377815 326.86885958 376.90509692 306.66812134 399.14044189 C305.86890259 400.03247314 305.06968384 400.92450439 304.24624634 401.84356689 C286.95445058 420.15854583 262.55566906 431.22419507 237.31726003 432.23455286 C234.65647417 432.27446789 231.99732855 432.28334419 229.33624268 432.28088379 C227.81370772 432.28534047 227.81370772 432.28534047 226.26041448 432.28988719 C222.87238253 432.29853171 219.48438609 432.30007885 216.09634399 432.30157471 C213.66134568 432.306206 211.22634808 432.31123108 208.79135132 432.31661987 C202.18339001 432.32971854 195.57543604 432.33622168 188.96746492 432.34063053 C184.83314035 432.34340118 180.69881809 432.3476401 176.56449509 432.3521347 C165.09494232 432.36432356 153.62539139 432.37462246 142.15583229 432.3780098 C141.0561917 432.37833915 141.0561917 432.37833915 139.93433615 432.37867515 C139.19958222 432.37889343 138.46482829 432.3791117 137.70780909 432.3793366 C136.21915666 432.37978005 134.73050423 432.38022661 133.24185181 432.38067627 C132.50344371 432.3808977 131.76503562 432.38111913 131.00425152 432.38134727 C119.06028459 432.38528871 107.11637891 432.40272445 95.1724356 432.42603579 C82.8798181 432.44983184 70.58723123 432.46221544 58.29459035 432.46337771 C51.40493326 432.46429005 44.51535592 432.46992964 37.62572098 432.48819733 C31.13647423 432.50534385 24.64733783 432.5067897 18.15807343 432.49805832 C15.78871378 432.4972927 13.41934574 432.50156722 11.05000687 432.51151657 C-21.85364659 432.64147679 -50.09795158 426.14079464 -74.51937866 402.45294189 C-93.30043741 383.49304479 -101.49657833 357.0449028 -101.47232056 330.80856323 C-101.47529168 329.79353993 -101.4782628 328.77851662 -101.48132396 327.73273504 C-101.48996848 324.34470308 -101.49151562 320.95670664 -101.49301147 317.56866455 C-101.49764277 315.13366623 -101.50266785 312.69866864 -101.50805664 310.26367188 C-101.52115531 303.65571057 -101.52765844 297.0477566 -101.5320673 290.43978548 C-101.53483795 286.30546091 -101.53907686 282.17113865 -101.54357147 278.03681564 C-101.55576032 266.56726288 -101.56605923 255.09771195 -101.56944656 243.62815285 C-101.56977591 242.52851226 -101.56977591 242.52851226 -101.57011192 241.4066567 C-101.57033019 240.67190278 -101.57054847 239.93714885 -101.57077336 239.18012965 C-101.57121681 237.69147722 -101.57166338 236.20282479 -101.57211304 234.71417236 C-101.57244518 233.60656022 -101.57244518 233.60656022 -101.57278404 232.47657208 C-101.57672548 220.53260515 -101.59416122 208.58869947 -101.61747256 196.64475615 C-101.6412686 184.35213866 -101.65365221 172.05955178 -101.65481448 159.76691091 C-101.65572681 152.87725381 -101.66136641 145.98767648 -101.67963409 139.09804153 C-101.69678062 132.60879479 -101.69822647 126.11965839 -101.68949509 119.63039398 C-101.68872947 117.26103434 -101.69300399 114.8916663 -101.70295334 112.52232742 C-101.81729297 83.5735333 -97.5524778 55.33378241 -77.33187866 33.14044189 C-76.44758179 32.16333252 -75.56328491 31.18622314 -74.65219116 30.17950439 C-55.21296157 9.39397681 -28.09702224 -0.02597814 0 0 Z " fill="#15262E" transform="translate(141.33187866210938,44.85955810546875)"/>
<path d="M0 0 C4.62 0 9.24 0 14 0 C14.33 0.99 14.66 1.98 15 3 C15.99 3.33 16.98 3.66 18 4 C18.98073288 5.86001064 19.94858929 7.72830677 20.83984375 9.6328125 C22.05923859 12.12087066 23.42916067 14.44932657 24.875 16.8125 C27.09234565 20.46293927 29.2390013 24.14071338 31.3125 27.875 C32.04919922 29.20144531 32.04919922 29.20144531 32.80078125 30.5546875 C34 33 34 33 34.48046875 35.1953125 C34.90581313 37.40385332 34.90581313 37.40385332 38 39 C38.6875 41.625 38.6875 41.625 39 44 C42.24732932 42.37633534 42.70155136 39.24612161 44 36 C44.66 36 45.32 36 46 36 C46.0825 35.29875 46.165 34.5975 46.25 33.875 C47.18015198 30.30941742 48.84790636 27.97495297 51 25 C51.53625 24.21625 52.0725 23.4325 52.625 22.625 C53.305625 21.820625 53.305625 21.820625 54 21 C54.66 21 55.32 21 56 21 C56.2475 20.01 56.495 19.02 56.75 18 C57.9723583 13.70874213 59.93318731 9.93503483 62 6 C62.99 4.02 63.98 2.04 65 0 C69.95 0 74.9 0 80 0 C80 0.99 80 1.98 80 3 C79.34 3.33 78.68 3.66 78 4 C77.34786708 6.02463255 77.34786708 6.02463255 77 8 C76.34 8 75.68 8 75 8 C74.731875 8.680625 74.46375 9.36125 74.1875 10.0625 C72.83946694 13.39710809 71.42463702 16.69743237 70 20 C69.34 20 68.68 20 68 20 C67.7421875 20.84433594 67.484375 21.68867188 67.21875 22.55859375 C65.92069672 26.2239301 64.2836717 29.61829712 62.5 33.0625 C60.48466649 36.97933018 58.55987551 40.87412928 57 45 C56.34 45 55.68 45 55 45 C54.7525 45.721875 54.505 46.44375 54.25 47.1875 C52.87772017 50.27512962 51.12224528 52.37840289 49 55 C45.97200962 59.86313607 43.89570085 64.59725257 42 70 C39.6171875 69.77734375 39.6171875 69.77734375 37 69 C35.8828125 67.06640625 35.8828125 67.06640625 35.125 64.5625 C33.71122317 60.52231661 32.05742782 57.43348288 29.5 54 C27.11352952 50.76769188 25.44530857 47.91634478 24.125 44.125 C22.57385365 39.84597558 20.42571134 36.70991051 17.625 33.125 C11.1739174 24.86549917 7.19002944 15.66276859 3.078125 6.08203125 C2.17814537 3.84381659 2.17814537 3.84381659 0 3 C0 2.01 0 1.02 0 0 Z " fill="#EDEEEF" transform="translate(217,207)"/>
<path d="M0 0 C24.75 0 49.5 0 75 0 C75 4.29 75 8.58 75 13 C54.87 13 34.74 13 14 13 C13.67 14.65 13.34 16.3 13 18 C8.71 18 4.42 18 0 18 C0 12.06 0 6.12 0 0 Z " fill="#ECEEEE" transform="translate(136,207)"/>
<path d="M0 0 C1.29461655 0.00222061 2.58923309 0.00444122 3.92308044 0.00672913 C4.99131546 0.00651009 4.99131546 0.00651009 6.08113098 0.00628662 C8.4457143 0.00698581 10.81021979 0.01477846 13.17478943 0.02259827 C14.81003781 0.02446243 16.44528675 0.02588634 18.08053589 0.02688599 C22.39273103 0.03071134 26.7048927 0.04054177 31.01707458 0.05158997 C35.41404263 0.06180371 39.81101607 0.06638353 44.20799255 0.07142639 C52.8414732 0.08216403 61.47492017 0.09976096 70.10838318 0.12025452 C70.10838318 4.74025452 70.10838318 9.36025452 70.10838318 14.12025452 C45.68838318 14.12025452 21.26838318 14.12025452 -3.89161682 14.12025452 C-3.89161682 0.16184181 -3.89161682 0.16184181 0 0 Z " fill="#E3E5E6" transform="translate(139.89161682128906,229.87974548339844)"/>
<path d="M0 0 C24.42 0 48.84 0 74 0 C74 4.29 74 8.58 74 13 C53.87 13 33.74 13 13 13 C13 14.32 13 15.64 13 17 C8.71 17 4.42 17 0 17 C0 11.39 0 5.78 0 0 Z " fill="#F0F2F2" transform="translate(304,207)"/>
<path d="M0 0 C4.29 0 8.58 0 13 0 C13 1.32 13 2.64 13 4 C32.8 4 52.6 4 73 4 C73 7.96 73 11.92 73 16 C48.91 16 24.82 16 0 16 C0 10.72 0 5.44 0 0 Z " fill="#F6F7F7" transform="translate(137,250)"/>
<path d="M0 0 C24.09 0 48.18 0 73 0 C73 3.96 73 7.92 73 12 C48.91 12 24.82 12 0 12 C0 8.04 0 4.08 0 0 Z " fill="#F5F5F6" transform="translate(304,231)"/>
<path d="M0 0 C3.96 0 7.92 0 12 0 C12 1.65 12 3.3 12 5 C32.13 5 52.26 5 73 5 C73 8.63 73 12.26 73 16 C48.91 16 24.82 16 0 16 C0 10.72 0 5.44 0 0 Z " fill="#FAFAFA" transform="translate(304,250)"/>
<path d="M0 0 C2.42538447 0.00056476 4.85076929 0.00024628 7.27615356 -0.00088501 C12.47832933 -0.0013388 17.6804598 0.00429252 22.88262177 0.01559067 C30.4038687 0.03191472 37.92509145 0.0370607 45.44635418 0.03956665 C57.65207546 0.04393298 69.85776986 0.0572131 82.06347656 0.07617188 C93.91308458 0.09455827 105.76268527 0.10870124 117.61230469 0.1171875 C118.34395292 0.11771295 119.07560115 0.11823839 119.82942054 0.11877976 C123.50025441 0.12139003 127.17108833 0.1239174 130.84192228 0.12640357 C161.24652212 0.14710295 191.65108934 0.18244911 222.05566406 0.22705078 C222.05566406 0.88705078 222.05566406 1.54705078 222.05566406 2.22705078 C213.47566406 2.22705078 204.89566406 2.22705078 196.05566406 2.22705078 C195.72566406 2.88705078 195.39566406 3.54705078 195.05566406 4.22705078 C195.71566406 4.22705078 196.37566406 4.22705078 197.05566406 4.22705078 C196.05566406 6.22705078 195.05566406 8.22705078 194.05566406 10.22705078 C192.05566406 10.22705078 192.05566406 10.22705078 190.43066406 8.72705078 C189.97691406 8.23205078 189.52316406 7.73705078 189.05566406 7.22705078 C189.71566406 5.24705078 190.37566406 3.26705078 191.05566406 1.22705078 C190.4052458 1.23220451 189.75482754 1.23735825 189.08469963 1.24266815 C173.05694171 1.36956321 157.0291715 1.49476106 141.00138664 1.61820221 C133.2496159 1.6779425 125.49784996 1.73820593 117.74609375 1.79980469 C109.51782331 1.86514967 101.28954181 1.92894125 93.06124973 1.99150085 C90.86204716 2.00828784 88.6628465 2.02531098 86.46364594 2.0423584 C72.77983291 2.14776798 59.09644245 2.24959657 45.41210938 2.22314453 C44.4906695 2.22150047 43.56922962 2.21985641 42.61986732 2.21816254 C38.55017764 2.20916993 34.48070239 2.19309112 30.41110229 2.16467285 C29.05320241 2.15874922 27.69530244 2.15284742 26.33740234 2.14697266 C25.20472931 2.13855347 24.07205627 2.13013428 22.90505981 2.12145996 C20.42848631 2.21323501 18.4324851 2.61146373 16.05566406 3.22705078 C15.56066406 2.73205078 15.56066406 2.73205078 15.05566406 2.22705078 C10.24970886 1.96592912 5.43059949 2.03214176 0.61816406 2.03955078 C-0.08862488 2.04015503 -0.79541382 2.04075928 -1.52362061 2.04138184 C-27.45380179 1.21687662 -27.45380179 1.21687662 -50.31933594 10.91455078 C-52.94433594 13.22705078 -52.94433594 13.22705078 -56.26464844 13.67626953 C-68.1525835 15.45567382 -77.49637726 27.36189916 -85.40136719 35.61962891 C-87.22198053 37.51629319 -89.07602771 39.37742564 -90.94433594 41.22705078 C-86.30828106 26.64504097 -68.71045358 16.07248089 -55.88183594 9.35205078 C-49.42495562 6.28593443 -42.90782677 3.85598267 -35.94433594 2.22705078 C-34.89132608 1.97459689 -34.89132608 1.97459689 -33.8170433 1.71704292 C-22.66671437 -0.54752899 -11.3231934 -0.03696873 0 0 Z " fill="#21353F" transform="translate(156.9443359375,48.77294921875)"/>
<path d="M0 0 C4.62 0 9.24 0 14 0 C14.33 1.32 14.66 2.64 15 4 C15.73693588 3.99777939 16.47387177 3.99555878 17.23313904 3.99327087 C24.16412769 3.97326797 31.09511204 3.95802587 38.02612209 3.94818783 C41.58977422 3.94296005 45.15340257 3.93586431 48.71704102 3.92456055 C52.81006097 3.91165824 56.9030558 3.90677094 60.99609375 3.90234375 C62.92418129 3.89460182 62.92418129 3.89460182 64.89122009 3.88670349 C66.07236893 3.88662796 67.25351776 3.88655243 68.47045898 3.88647461 C70.03932106 3.88314369 70.03932106 3.88314369 71.63987732 3.87974548 C74 4 74 4 75 5 C75 9.62 75 14.24 75 19 C50.25 19 25.5 19 0 19 C0 12.73 0 6.46 0 0 Z M1 1 C1 6.28 1 11.56 1 17 C25.09 17 49.18 17 74 17 C74 13.37 74 9.74 74 6 C53.87 6 33.74 6 13 6 C13 4.35 13 2.7 13 1 C9.04 1 5.08 1 1 1 Z " fill="#616A6F" transform="translate(303,249)"/>
<path d="M0 0 C1.08152344 -0.01417969 2.16304687 -0.02835937 3.27734375 -0.04296875 C6.0625 0.1875 6.0625 0.1875 8.0625 2.1875 C8.2578125 4.3515625 8.2578125 4.3515625 8.1875 6.8125 C8.16945312 7.62976563 8.15140625 8.44703125 8.1328125 9.2890625 C8.09800781 10.22878906 8.09800781 10.22878906 8.0625 11.1875 C5.17834117 12.62957941 2.64528472 12.28144887 -0.5625 12.25 C-1.75101563 12.24097656 -2.93953125 12.23195313 -4.1640625 12.22265625 C-5.07929688 12.21105469 -5.99453125 12.19945312 -6.9375 12.1875 C-6.96437279 10.37507948 -6.98383715 8.56254767 -7 6.75 C-7.01160156 5.74066406 -7.02320313 4.73132813 -7.03515625 3.69140625 C-6.85021835 -1.05040139 -4.12969461 0.02455229 0 0 Z " fill="#949CA0" transform="translate(190.9375,294.8125)"/>
<path d="M0 0 C0 0.66 0 1.32 0 2 C-1.14855469 2.09796875 -2.29710937 2.1959375 -3.48046875 2.296875 C-20.05140903 3.3656127 -20.05140903 3.3656127 -34.375 10.6875 C-37 13 -37 13 -40.3203125 13.44921875 C-52.20824756 15.22862304 -61.55204133 27.13484838 -69.45703125 35.39257812 C-71.2776446 37.28924241 -73.13169177 39.15037486 -75 41 C-70.36394513 26.41799019 -52.76611764 15.84543011 -39.9375 9.125 C-27.40976722 3.17607661 -13.93874876 -0.53610572 0 0 Z " fill="#3F5661" transform="translate(141,49)"/>
<path d="M0 0 C0.66 0 1.32 0 2 0 C2 0.99 2 1.98 2 3 C2.73693588 2.99777939 3.47387177 2.99555878 4.23313904 2.99327087 C11.16412769 2.97326797 18.09511204 2.95802587 25.02612209 2.94818783 C28.58977422 2.94296005 32.15340257 2.93586431 35.71704102 2.92456055 C39.81006097 2.91165824 43.9030558 2.90677094 47.99609375 2.90234375 C49.92418129 2.89460182 49.92418129 2.89460182 51.89122009 2.88670349 C53.66294334 2.88659019 53.66294334 2.88659019 55.47045898 2.88647461 C57.03932106 2.88314369 57.03932106 2.88314369 58.63987732 2.87974548 C61 3 61 3 62 4 C62.07244053 6.01964199 62.08377188 8.04167124 62.0625 10.0625 C62.05347656 11.16722656 62.04445313 12.27195312 62.03515625 13.41015625 C62.02355469 14.26480469 62.01195312 15.11945313 62 16 C61.67 16 61.34 16 61 16 C61 12.37 61 8.74 61 5 C40.87 5 20.74 5 0 5 C0 3.35 0 1.7 0 0 Z " fill="#A0A6A9" transform="translate(316,250)"/>
<path d="M0 0 C1.51400391 0.01740234 1.51400391 0.01740234 3.05859375 0.03515625 C4.07050781 0.04417969 5.08242188 0.05320312 6.125 0.0625 C7.29869141 0.07990234 7.29869141 0.07990234 8.49609375 0.09765625 C8.49609375 1.08765625 8.49609375 2.07765625 8.49609375 3.09765625 C7.50609375 3.09765625 6.51609375 3.09765625 5.49609375 3.09765625 C5.49609375 5.07765625 5.49609375 7.05765625 5.49609375 9.09765625 C6.48609375 9.09765625 7.47609375 9.09765625 8.49609375 9.09765625 C8.49609375 10.08765625 8.49609375 11.07765625 8.49609375 12.09765625 C6.68367323 12.12452904 4.87114142 12.1439934 3.05859375 12.16015625 C2.04925781 12.17175781 1.03992188 12.18335938 0 12.1953125 C-2.50390625 12.09765625 -2.50390625 12.09765625 -3.50390625 11.09765625 C-3.60214562 9.43336574 -3.63364256 7.76483694 -3.62890625 6.09765625 C-3.63148438 5.19015625 -3.6340625 4.28265625 -3.63671875 3.34765625 C-3.44818505 0.15367356 -3.21403411 0.12535234 0 0 Z " fill="#B5B8BA" transform="translate(320.50390625,294.90234375)"/>
<path d="M0 0 C4.28505707 1.07126427 5.06743853 1.97283977 8 5 C8.99 5.33 9.98 5.66 11 6 C11 4.35 11 2.7 11 1 C11.99 1 12.98 1 14 1 C14 4.63 14 8.26 14 12 C12.35 12 10.7 12 9 12 C8.67 11.01 8.34 10.02 8 9 C5.98491642 8.26676204 5.98491642 8.26676204 4 8 C3.67 9.32 3.34 10.64 3 12 C2.01 12 1.02 12 0 12 C0 8.04 0 4.08 0 0 Z " fill="#A4A8AA" transform="translate(288,295)"/>
<path d="M0 0 C17.82 0 35.64 0 54 0 C54 0.66 54 1.32 54 2 C45.42 2 36.84 2 28 2 C27.67 2.66 27.34 3.32 27 4 C27.66 4 28.32 4 29 4 C28 6 27 8 26 10 C24 10 24 10 22.375 8.5 C21.92125 8.005 21.4675 7.51 21 7 C21.66 5.02 22.32 3.04 23 1 C15.41 1 7.82 1 0 1 C0 0.67 0 0.34 0 0 Z " fill="#2B414B" transform="translate(325,49)"/>
<path d="M0 0 C2 2 2 2 2.3125 5.5 C2.1578125 7.2325 2.1578125 7.2325 2 9 C-1 11 -1 11 -4.0625 10.75 C-7 10 -7 10 -9 8 C-9.36023622 5.19015752 -9.38332602 3.61758081 -7.875 1.1875 C-5.16554166 -0.52849028 -3.13704316 -0.333728 0 0 Z " fill="#606D72" transform="translate(392,207)"/>
<path d="M0 0 C1.32 0 2.64 0 4 0 C5.37868281 1.62935241 6.71274093 3.29749607 8 5 C8.99 5.33 9.98 5.66 11 6 C11 4.35 11 2.7 11 1 C11.66 1 12.32 1 13 1 C13 4.3 13 7.6 13 11 C9.17902761 10.46930939 6.93828597 9.50298434 4 7 C4 8.65 4 10.3 4 12 C2.68 12 1.36 12 0 12 C0 8.04 0 4.08 0 0 Z " fill="#A2A8AA" transform="translate(214,295)"/>
<path d="M0 0 C1.65 0 3.3 0 5 0 C5 1.65 5 3.3 5 5 C14.24 5 23.48 5 33 5 C33 5.33 33 5.66 33 6 C8.58 6 -15.84 6 -41 6 C-41 5.67 -41 5.34 -41 5 C-27.47 4.67 -13.94 4.34 0 4 C0 2.68 0 1.36 0 0 Z " fill="#3C4C54" transform="translate(177,201)"/>
<path d="M0 0 C1.32 0 2.64 0 4 0 C4 2.64 4 5.28 4 8 C6.64 8 9.28 8 12 8 C12 8.99 12 9.98 12 11 C8.04 11 4.08 11 0 11 C0 7.37 0 3.74 0 0 Z " fill="#A4A9AB" transform="translate(243,296)"/>
<path d="M0 0 C0.66 0 1.32 0 2 0 C2 2.31 2 4.62 2 7 C4.97 7 7.94 7 11 7 C11 7.99 11 8.98 11 10 C9.18757948 10.02687279 7.37504767 10.04633715 5.5625 10.0625 C4.55316406 10.07410156 3.54382813 10.08570313 2.50390625 10.09765625 C0 10 0 10 -1 9 C-1.1328125 7.1875 -1.1328125 7.1875 -1.125 5 C-1.12757813 4.278125 -1.13015625 3.55625 -1.1328125 2.8125 C-1 1 -1 1 0 0 Z " fill="#BABFC1" transform="translate(186,297)"/>
<path d="M0 0 C3.63 0 7.26 0 11 0 C11 0.99 11 1.98 11 3 C10.01 3 9.02 3 8 3 C8 4.98 8 6.96 8 9 C8.99 9.33 9.98 9.66 11 10 C8.36 10 5.72 10 3 10 C3.185625 9.4225 3.37125 8.845 3.5625 8.25 C4.0538534 5.72303966 3.95266498 4.38166246 3 2 C2.01 1.34 1.02 0.68 0 0 Z " fill="#6C7376" transform="translate(318,295)"/>
<path d="M0 0 C0 1.65 0 3.3 0 5 C-1.65 4.67 -3.3 4.34 -5 4 C-5 3.01 -5 2.02 -5 1 C-5.66 1 -6.32 1 -7 1 C-7 2.32 -7 3.64 -7 5 C-8.65 5 -10.3 5 -12 5 C-12 3.35 -12 1.7 -12 0 C-7.91556885 -1.53166168 -4.20544343 -0.63081652 0 0 Z " fill="#4D7181" transform="translate(74,120)"/>
<path d="M0 0 C-0.33 1.65 -0.66 3.3 -1 5 C-1.66 5 -2.32 5 -3 5 C-3 6.32 -3 7.64 -3 9 C-4.32 9 -5.64 9 -7 9 C-7.33 6.69 -7.66 4.38 -8 2 C-4.91190305 0.23537317 -3.76687864 0 0 0 Z " fill="#2D434D" transform="translate(273,166)"/>
<path d="M0 0 C2.875 -0.125 2.875 -0.125 6 0 C8 2 8 2 8.125 5.125 C8.08375 6.07375 8.0425 7.0225 8 8 C7.34 8 6.68 8 6 8 C6 7.01 6 6.02 6 5 C4.35 5.33 2.7 5.66 1 6 C0.67 4.02 0.34 2.04 0 0 Z " fill="#808A8F" transform="translate(386,207)"/>
<path d="M0 0 C1 2 1 2 0.3125 4.8125 C-1 8 -1 8 -2.91015625 10.3046875 C-5.16123474 13.20794761 -6.40187985 15.90475184 -7.75 19.3125 C-8.39195313 20.91544922 -8.39195313 20.91544922 -9.046875 22.55078125 C-9.51867188 23.76314453 -9.51867188 23.76314453 -10 25 C-11.11751765 21.71877796 -10.95067898 20.1345063 -9.453125 17.03125 C-9.1025 16.29519531 -8.751875 15.55914062 -8.390625 14.80078125 C-7.82601562 13.66189453 -7.82601562 13.66189453 -7.25 12.5 C-6.8890625 11.74074219 -6.528125 10.98148438 -6.15625 10.19921875 C-4.3845077 6.53376639 -2.63654558 3.1371555 0 0 Z " fill="#39515C" transform="translate(65,90)"/>
<path d="M0 0 C2.31 0 4.62 0 7 0 C7 1.98 7 3.96 7 6 C4.69 6 2.38 6 0 6 C0 4.02 0 2.04 0 0 Z " fill="#3C4B51" transform="translate(188,298)"/>
<path d="M0 0 C0.33 0.99 0.66 1.98 1 3 C1.99 3.66 2.98 4.32 4 5 C2.625 6.5 2.625 6.5 1 8 C0.34 8 -0.32 8 -1 8 C-1 6.68 -1 5.36 -1 4 C-2.32 4 -3.64 4 -5 4 C-5 3.34 -5 2.68 -5 2 C-2 0 -2 0 0 0 Z M-5 8 C-3.68 8 -2.36 8 -1 8 C-1.33 8.99 -1.66 9.98 -2 11 C-2.99 11 -3.98 11 -5 11 C-5 10.01 -5 9.02 -5 8 Z " fill="#08141C" transform="translate(436,282)"/>
<path d="M0 0 C1.32 0.33 2.64 0.66 4 1 C3.67 4.63 3.34 8.26 3 12 C2.01 12 1.02 12 0 12 C0 8.04 0 4.08 0 0 Z " fill="#ADB1B3" transform="translate(288,295)"/>
<path d="M0 0 C2.46278801 2.46278801 2.99771255 4.70676982 4 8 C5.32 7.67 6.64 7.34 8 7 C8 8.32 8 9.64 8 11 C7.01 11.33 6.02 11.66 5 12 C4.26676204 14.01508358 4.26676204 14.01508358 4 16 C3.32586789 14.08594633 2.6609668 12.16863974 2 10.25 C1.62875 9.18265625 1.2575 8.1153125 0.875 7.015625 C0 4 0 4 0 0 Z " fill="#253740" transform="translate(52,389)"/>
<path d="M0 0 C2.8125 -0.25 2.8125 -0.25 6 0 C7.875 2 7.875 2 9 4 C8.07213211 5.00894372 7.13231567 6.00690907 6.1875 7 C5.40439453 7.8353125 5.40439453 7.8353125 4.60546875 8.6875 C3 10 3 10 0 10 C0 9.34 0 8.68 0 8 C0.99 7.67 1.98 7.34 3 7 C3 5.68 3 4.36 3 3 C2.01 2.67 1.02 2.34 0 2 C0 1.34 0 0.68 0 0 Z " fill="#060F15" transform="translate(258,315)"/>
<path d="M0 0 C5.61 0 11.22 0 17 0 C17 1.98 17 3.96 17 6 C16.34 6 15.68 6 15 6 C14.67 6.99 14.34 7.98 14 9 C13.67 7.68 13.34 6.36 13 5 C13.99 4.67 14.98 4.34 16 4 C16 3.01 16 2.02 16 1 C8.08 1.495 8.08 1.495 0 2 C0 1.34 0 0.68 0 0 Z " fill="#4A5961" transform="translate(281,206)"/>
<path d="M0 0 C2.97 0.495 2.97 0.495 6 1 C5 3 4 5 3 7 C1 7 1 7 -0.625 5.5 C-1.07875 5.005 -1.5325 4.51 -2 4 C-1.34 2.68 -0.68 1.36 0 0 Z " fill="#3D5E70" transform="translate(348,52)"/>
<path d="M0 0 C1.24546405 2.49092811 0.7767578 3.41080733 0 6 C-0.66 6 -1.32 6 -2 6 C-2.103125 6.61875 -2.20625 7.2375 -2.3125 7.875 C-3 10 -3 10 -6 12 C-5.39294514 7.87202695 -4.06000669 4.62561178 -2 1 C-1.34 0.67 -0.68 0.34 0 0 Z " fill="#566269" transform="translate(287,226)"/>
<path d="M0 0 C1.98 0 3.96 0 6 0 C6 1.65 6 3.3 6 5 C4.02 5 2.04 5 0 5 C0 3.35 0 1.7 0 0 Z " fill="#748085" transform="translate(208,425)"/>
<path d="M0 0 C0.99 0 1.98 0 3 0 C3 3.3 3 6.6 3 10 C2.01 10 1.02 10 0 10 C0 6.7 0 3.4 0 0 Z " fill="#B9BCBE" transform="translate(269,296)"/>
<path d="M0 0 C2.31 0.33 4.62 0.66 7 1 C6.67 2.32 6.34 3.64 6 5 C4.02 5 2.04 5 0 5 C0 3.35 0 1.7 0 0 Z " fill="#506873" transform="translate(134,106)"/>
<path d="M0 0 C1.98 0 3.96 0 6 0 C4.68 0.33 3.36 0.66 2 1 C1.67 2.32 1.34 3.64 1 5 C-3.95 5 -8.9 5 -14 5 C-14 4.67 -14 4.34 -14 4 C-7.565 3.505 -7.565 3.505 -1 3 C-0.67 2.01 -0.34 1.02 0 0 Z " fill="#27373E" transform="translate(150,221)"/>
<path d="M0 0 C1.65 0 3.3 0 5 0 C4.67 2.31 4.34 4.62 4 7 C3.01 6.67 2.02 6.34 1 6 C0.67 4.02 0.34 2.04 0 0 Z " fill="#506A76" transform="translate(149,78)"/>
<path d="M0 0 C1.65 0 3.3 0 5 0 C5.66 1.32 6.32 2.64 7 4 C6.01 4.66 5.02 5.32 4 6 C2 4.6875 2 4.6875 0 3 C0 2.01 0 1.02 0 0 Z " fill="#3E5B68" transform="translate(195,65)"/>
<path d="M0 0 C0.66 0 1.32 0 2 0 C1.34 1.32 0.68 2.64 0 4 C0 2.68 0 1.36 0 0 Z M-4 4 C-1.69 4.33 0.62 4.66 3 5 C3.33 6.32 3.66 7.64 4 9 C2.68 9.33 1.36 9.66 0 10 C0.66 9.67 1.32 9.34 2 9 C2 8.01 2 7.02 2 6 C1.01 6 0.02 6 -1 6 C-1.33 6.99 -1.66 7.98 -2 9 C-2 8.01 -2 7.02 -2 6 C-2.66 6 -3.32 6 -4 6 C-4 5.34 -4 4.68 -4 4 Z " fill="#091016" transform="translate(303,428)"/>
<path d="M0 0 C0.66 0.33 1.32 0.66 2 1 C2 1.99 2 2.98 2 4 C2.99 3.67 3.98 3.34 5 3 C4 6 4 6 1.5625 7.25 C-1 8 -1 8 -3 7 C-2.690625 6.401875 -2.38125 5.80375 -2.0625 5.1875 C-0.89790296 2.91043228 -0.89790296 2.91043228 0 0 Z " fill="#0D1419" transform="translate(411,446)"/>
<path d="M0 0 C0 0.99 0 1.98 0 3 C-1.86328125 4.7890625 -1.86328125 4.7890625 -4.3125 6.625 C-5.11300781 7.23601562 -5.91351563 7.84703125 -6.73828125 8.4765625 C-9 10 -9 10 -12 11 C-10.65011683 6.95035049 -8.55820938 6.25809441 -5 4 C-3.31916921 2.68456721 -1.6475884 1.35683751 0 0 Z " fill="#13181B" transform="translate(429,439)"/>
<path d="M0 0 C0.99 0 1.98 0 3 0 C3.33 1.32 3.66 2.64 4 4 C3.34 4 2.68 4 2 4 C2 5.98 2 7.96 2 10 C1.34 10 0.68 10 0 10 C0 6.7 0 3.4 0 0 Z " fill="#CBCECF" transform="translate(215,296)"/>
<path d="M0 0 C1.9375 0.75 1.9375 0.75 4 2 C4.75 4.125 4.75 4.125 5 6 C3.68 6 2.36 6 1 6 C0 5 0 5 -0.0625 2.4375 C-0.041875 1.633125 -0.02125 0.82875 0 0 Z " fill="#405D6A" transform="translate(105,67)"/>
<path d="M0 0 C1.65 0 3.3 0 5 0 C5 1.32 5 2.64 5 4 C3.68 4 2.36 4 1 4 C0.67 4.66 0.34 5.32 0 6 C-0.66 5.34 -1.32 4.68 -2 4 C-1.34 4 -0.68 4 0 4 C0 2.68 0 1.36 0 0 Z " fill="#3D4B53" transform="translate(107,450)"/>
<path d="M0 0 C0.66 0.33 1.32 0.66 2 1 C2 3.97 2 6.94 2 10 C1.34 10 0.68 10 0 10 C-1.125 3.375 -1.125 3.375 0 0 Z " fill="#ACB2B5" transform="translate(197,296)"/>
<path d="M0 0 C0 0.99 0 1.98 0 3 C-0.99 3 -1.98 3 -3 3 C-3 6.96 -3 10.92 -3 15 C-3.33 15 -3.66 15 -4 15 C-4.33 10.38 -4.66 5.76 -5 1 C-3 0 -3 0 0 0 Z " fill="#253841" transform="translate(215,229)"/>
<path d="M0 0 C2.475 0.495 2.475 0.495 5 1 C5 2.32 5 3.64 5 5 C3.35 5 1.7 5 0 5 C0 3.35 0 1.7 0 0 Z " fill="#586F78" transform="translate(86,151)"/>
<path d="M0 0 C2.475 0.495 2.475 0.495 5 1 C5 2.32 5 3.64 5 5 C3.35 5 1.7 5 0 5 C0 3.35 0 1.7 0 0 Z " fill="#677F8A" transform="translate(62,120)"/>
<path d="M0 0 C2.475 0.495 2.475 0.495 5 1 C5 2.32 5 3.64 5 5 C3.35 5 1.7 5 0 5 C0 3.35 0 1.7 0 0 Z " fill="#51727F" transform="translate(140,95)"/>
<path d="M0 0 C0.99 0.33 1.98 0.66 3 1 C3.33 2.65 3.66 4.3 4 6 C4.99 6.33 5.98 6.66 7 7 C5.68 7.33 4.36 7.66 3 8 C3 7.01 3 6.02 3 5 C2.01 5 1.02 5 0 5 C0 3.35 0 1.7 0 0 Z M1 8 C3 9 3 9 3 9 Z " fill="#0D1A21" transform="translate(455,282)"/>
<path d="M0 0 C0.33 0.66 0.66 1.32 1 2 C1.66 2 2.32 2 3 2 C2.57742724 3.4835001 2.13643678 4.96176424 1.6875 6.4375 C1.44386719 7.26121094 1.20023437 8.08492187 0.94921875 8.93359375 C0.63597656 9.61550781 0.32273437 10.29742187 0 11 C-0.99 11.33 -1.98 11.66 -3 12 C-2.690625 11.319375 -2.38125 10.63875 -2.0625 9.9375 C-0.86629351 6.63034088 -0.40994603 3.48454122 0 0 Z " fill="#657176" transform="translate(273,217)"/>
<path d="M0 0 C0.625 1.8125 0.625 1.8125 1 4 C0.01 5.485 0.01 5.485 -1 7 C-1.66 7 -2.32 7 -3 7 C-3.12375 7.639375 -3.2475 8.27875 -3.375 8.9375 C-3.58125 9.618125 -3.7875 10.29875 -4 11 C-4.99 11.495 -4.99 11.495 -6 12 C-4.68139111 7.38486888 -2.78644563 3.90102388 0 0 Z " fill="#7B8387" transform="translate(267,259)"/>
<path d="M0 0 C1.65 0 3.3 0 5 0 C5 1.65 5 3.3 5 5 C3.68 4.67 2.36 4.34 1 4 C0.67 2.68 0.34 1.36 0 0 Z " fill="#55707C" transform="translate(227,149)"/>
<path d="M0 0 C0.99 0 1.98 0 3 0 C3.33 1.65 3.66 3.3 4 5 C2.35 4.67 0.7 4.34 -1 4 C-1 1 -1 1 0 0 Z " fill="#344C57" transform="translate(248,148)"/>
<path d="M0 0 C1.65 0.33 3.3 0.66 5 1 C4.67 2.32 4.34 3.64 4 5 C2.35 4.67 0.7 4.34 -1 4 C-0.67 2.68 -0.34 1.36 0 0 Z " fill="#324F5D" transform="translate(172,61)"/>
<path d="M0 0 C0 1.32 0 2.64 0 4 C-1.98 4.33 -3.96 4.66 -6 5 C-6 4.01 -6 3.02 -6 2 C-3 0 -3 0 0 0 Z " fill="#394851" transform="translate(398,437)"/>
<path d="M0 0 C0.99 0 1.98 0 3 0 C3.33 1.65 3.66 3.3 4 5 C2.35 4.67 0.7 4.34 -1 4 C-0.67 2.68 -0.34 1.36 0 0 Z " fill="#2E454F" transform="translate(298,177)"/>
<path d="M0 0 C1.32 0 2.64 0 4 0 C4.33 1.32 4.66 2.64 5 4 C3.68 4.33 2.36 4.66 1 5 C0.34 3.68 -0.32 2.36 -1 1 C-0.67 0.67 -0.34 0.34 0 0 Z " fill="#38525D" transform="translate(227,105)"/>
<path d="M0 0 C1.67542976 0.28604898 3.34385343 0.61781233 5 1 C5 1.66 5 2.32 5 3 C3.35 3.66 1.7 4.32 0 5 C-0.5625 3.0625 -0.5625 3.0625 -1 1 C-0.67 0.67 -0.34 0.34 0 0 Z " fill="#344C58" transform="translate(299,69)"/>
<path d="M0 0 C1.65 0.33 3.3 0.66 5 1 C4.34 2.32 3.68 3.64 3 5 C1.68 4.34 0.36 3.68 -1 3 C-0.67 2.01 -0.34 1.02 0 0 Z " fill="#3B5360" transform="translate(289,68)"/>
<path d="M0 0 C1.32 0 2.64 0 4 0 C4.33 1.32 4.66 2.64 5 4 C4.01 4.33 3.02 4.66 2 5 C1.34 4.67 0.68 4.34 0 4 C0 2.68 0 1.36 0 0 Z " fill="#29414D" transform="translate(80,329)"/>
<path d="M0 0 C1.65 0 3.3 0 5 0 C5 1.32 5 2.64 5 4 C3.35 4 1.7 4 0 4 C0 2.68 0 1.36 0 0 Z " fill="#0B1D25" transform="translate(189,299)"/>
<path d="M0 0 C1.65 0 3.3 0 5 0 C5 1.32 5 2.64 5 4 C3.35 4 1.7 4 0 4 C0 2.68 0 1.36 0 0 Z " fill="#4E6067" transform="translate(435,223)"/>
<path d="M0 0 C0.66 0 1.32 0 2 0 C2 0.99 2 1.98 2 3 C2.66 3.33 3.32 3.66 4 4 C2.125 5.0625 2.125 5.0625 0 6 C-0.66 5.67 -1.32 5.34 -2 5 C-2 4.01 -2 3.02 -2 2 C-1.34 2 -0.68 2 0 2 C0 1.34 0 0.68 0 0 Z " fill="#58646B" transform="translate(390,212)"/>
<path d="M0 0 C1.32 0 2.64 0 4 0 C3.67 1.65 3.34 3.3 3 5 C1.68 4.34 0.36 3.68 -1 3 C-0.67 2.01 -0.34 1.02 0 0 Z " fill="#324B58" transform="translate(225,83)"/>
<path d="M0 0 C1.65 0 3.3 0 5 0 C5 1.32 5 2.64 5 4 C3.35 4 1.7 4 0 4 C0 2.68 0 1.36 0 0 Z " fill="#516D7A" transform="translate(85,76)"/>
<path d="M0 0 C0.33 0.66 0.66 1.32 1 2 C3.02463255 2.65213292 3.02463255 2.65213292 5 3 C4.01 3.33 3.02 3.66 2 4 C0.62804426 5.29355827 -0.71182656 6.62298702 -2 8 C-2.66 7.34 -3.32 6.68 -4 6 C-3.01 5.34 -2.02 4.68 -1 4 C-0.27617533 1.94074861 -0.27617533 1.94074861 0 0 Z " fill="#080F15" transform="translate(303,302)"/>
<path d="M0 0 C1.65 0 3.3 0 5 0 C4.67 1.32 4.34 2.64 4 4 C2.68 4 1.36 4 0 4 C0 2.68 0 1.36 0 0 Z " fill="#283E46" transform="translate(108,299)"/>
<path d="M0 0 C0.99 0 1.98 0 3 0 C3 1.65 3 3.3 3 5 C1.68 5 0.36 5 -1 5 C-0.67 3.35 -0.34 1.7 0 0 Z " fill="#314A54" transform="translate(454,220)"/>
<path d="M0 0 C0.66 0 1.32 0 2 0 C2 1.32 2 2.64 2 4 C1.01 4 0.02 4 -1 4 C-1.33 5.65 -1.66 7.3 -2 9 C-2.66 9 -3.32 9 -4 9 C-2.94124926 5.59687262 -1.99097846 2.98646769 0 0 Z " fill="#747E84" transform="translate(292,215)"/>
<path d="M0 0 C1.32 0 2.64 0 4 0 C3.71125 0.556875 3.4225 1.11375 3.125 1.6875 C1.9586747 4.08494645 0.9660119 6.51596939 0 9 C-1.53445094 5.93109813 -0.54984289 3.29905734 0 0 Z " fill="#45555C" transform="translate(277,210)"/>
<path d="M0 0 C0.99 0 1.98 0 3 0 C2.67 1.65 2.34 3.3 2 5 C-0.97 5 -3.94 5 -7 5 C-7 4.67 -7 4.34 -7 4 C-4.69 4 -2.38 4 0 4 C0 2.68 0 1.36 0 0 Z " fill="#5A6971" transform="translate(178,202)"/>
<path d="M0 0 C1.32 0 2.64 0 4 0 C4 1.65 4 3.3 4 5 C2.68 4.67 1.36 4.34 0 4 C0 2.68 0 1.36 0 0 Z " fill="#425D68" transform="translate(79,116)"/>
<path d="M0 0 C1.32 0 2.64 0 4 0 C4.33 0.99 4.66 1.98 5 3 C3.02 3.99 3.02 3.99 1 5 C0.67 3.35 0.34 1.7 0 0 Z " fill="#385462" transform="translate(141,82)"/>
<path d="M0 0 C1.98 0.495 1.98 0.495 4 1 C3.67 2.32 3.34 3.64 3 5 C1.68 4.34 0.36 3.68 -1 3 C-0.67 2.01 -0.34 1.02 0 0 Z " fill="#395361" transform="translate(424,78)"/>
<path d="M0 0 C1.32 0 2.64 0 4 0 C3.67 1.65 3.34 3.3 3 5 C1.68 4.34 0.36 3.68 -1 3 C-0.67 2.01 -0.34 1.02 0 0 Z " fill="#365362" transform="translate(203,56)"/>
<path d="M0 0 C1.32 0 2.64 0 4 0 C4.33 0.99 4.66 1.98 5 3 C3.02 3.99 3.02 3.99 1 5 C0.67 3.35 0.34 1.7 0 0 Z " fill="#3C5663" transform="translate(264,53)"/>
<path d="M0 0 C0.99 0.33 1.98 0.66 3 1 C1.95125002 3.62187494 1.35068687 4.79371361 -1.125 6.25 C-1.74375 6.4975 -2.3625 6.745 -3 7 C-3.33 6.01 -3.66 5.02 -4 4 C-3.01 3.67 -2.02 3.34 -1 3 C-0.67 2.01 -0.34 1.02 0 0 Z " fill="#061017" transform="translate(372,406)"/>
<path d="M0 0 C0.66 0.33 1.32 0.66 2 1 C2 2.98 2 4.96 2 7 C1.34 7 0.68 7 0 7 C0 6.01 0 5.02 0 4 C-0.66 4 -1.32 4 -2 4 C-1.34 2.68 -0.68 1.36 0 0 Z " fill="#768186" transform="translate(392,208)"/>
<path d="M0 0 C0.99 0.33 1.98 0.66 3 1 C2.34 3.31 1.68 5.62 1 8 C0.17361624 5.10765685 0 3.11257569 0 0 Z " fill="#2B4855" transform="translate(60,117)"/>
<path d="M0 0 C2.475 0.495 2.475 0.495 5 1 C4.67 1.99 4.34 2.98 4 4 C2.68 4 1.36 4 0 4 C0 2.68 0 1.36 0 0 Z " fill="#334A55" transform="translate(348,86)"/>
<path d="M0 0 C1.98 0.495 1.98 0.495 4 1 C3.67 2.32 3.34 3.64 3 5 C1.68 4.34 0.36 3.68 -1 3 C-0.67 2.01 -0.34 1.02 0 0 Z " fill="#324954" transform="translate(324,86)"/>
<path d="M0 0 C2.475 0.495 2.475 0.495 5 1 C4.67 1.99 4.34 2.98 4 4 C2.68 4 1.36 4 0 4 C0 2.68 0 1.36 0 0 Z " fill="#325261" transform="translate(235,82)"/>
<path d="M0 0 C0.66 0.33 1.32 0.66 2 1 C2 2.32 2 3.64 2 5 C0.68 5 -0.64 5 -2 5 C-2 3.68 -2 2.36 -2 1 C-1.34 0.67 -0.68 0.34 0 0 Z " fill="#324C58" transform="translate(322,129)"/>
<path d="M0 0 C0.99 0 1.98 0 3 0 C3.33 1.32 3.66 2.64 4 4 C2.68 4 1.36 4 0 4 C-0.33 3.01 -0.66 2.02 -1 1 C-0.67 0.67 -0.34 0.34 0 0 Z " fill="#304651" transform="translate(285,112)"/>
<path d="M0 0 C0.99 0 1.98 0 3 0 C3.33 0.99 3.66 1.98 4 3 C3.01 3.66 2.02 4.32 1 5 C0.34 4.67 -0.32 4.34 -1 4 C-0.67 2.68 -0.34 1.36 0 0 Z " fill="#35535F" transform="translate(273,74)"/>
</svg>
